<svg width="302" height="300" viewBox="0 0 302 300" fill="none" xmlns="http://www.w3.org/2000/svg">
<path fill-rule="evenodd" clip-rule="evenodd" d="M136.561 2.6207C102.36 4.78369 93.7981 7.90972 86.8972 20.7563L81.9841 29.9078L101.997 58.8533C120.998 86.3335 121.77 87.9918 117.212 91.5607C106.822 99.7029 102.749 101.147 100.599 97.46C99.4734 95.5288 90.5485 82.9397 80.7661 69.4854C63.5652 45.8341 62.6665 45.041 53.6077 45.5869C37.151 46.5757 32.9744 51.6175 16.0953 90.8526C7.44336 110.966 0.403355 129.161 0.45228 131.285C0.501205 133.409 3.71994 138.979 7.60559 143.666L14.6714 152.181L46.4209 147.858C77.4469 143.635 78.2838 143.65 83.1711 148.537C87.1649 152.531 87.6722 154.854 85.6895 160.073C82.6278 168.128 75.0162 169.897 43.2099 169.948C30.2861 169.972 18.4257 170.839 16.8549 171.88C13.3813 174.177 5.55074 189.052 5.55074 193.35C5.55074 198.773 44.3172 257.12 52.4824 263.992C58.6161 269.152 62.6125 270.427 70.77 269.822L81.209 269.047L96.8108 237.49L112.413 205.936L121.425 210.469C126.382 212.961 130.265 216.733 130.054 218.85C129.843 220.967 123.539 235.732 116.049 251.663L102.429 280.627L109.997 288.578C114.159 292.95 119.599 297.632 122.089 298.984C127.219 301.765 205.82 294.356 210.481 290.654C212.018 289.433 214.779 283.881 216.615 278.317L219.954 268.2L200.549 241.626C181.94 216.144 181.288 214.771 184.667 208.236C187.028 203.671 190.842 201.031 196.228 200.241C203.923 199.113 204.95 200.114 220.325 223.755C240.379 254.591 241.968 255.927 256.025 253.818L267.074 252.163L284.373 217.449C303.296 179.481 305.282 169.418 296.638 155.245C292.286 148.107 290.499 147.175 283.129 148.2C278.458 148.849 263.088 150.474 248.972 151.813C220.616 154.499 219.383 153.999 219.313 139.811C219.27 130.58 217.359 131.167 263.765 126.197C276.197 124.866 287.463 123.099 288.799 122.273C290.138 121.446 292.582 116.26 294.232 110.752C298.149 97.6866 294.41 90.1496 265.645 53.1162L243.93 25.1596L232.35 26.7483C225.98 27.6212 219.849 29.2564 218.724 30.3816C217.601 31.5043 211.586 45.0977 205.357 60.5862C194.828 86.7816 193.471 88.8622 185.921 90.4046C179.21 91.777 177.112 91.0097 173.818 85.9833C170.028 80.1999 170.543 78.5725 184.255 52.8947C192.186 38.0422 198.675 23.9313 198.675 21.5366C198.675 19.1444 195.719 13.3095 192.106 8.5715C184.762 -1.05637 188.473 -0.659828 136.561 2.6207ZM180.65 6.4497C180.65 8.78006 157.287 54.5814 146.524 73.3479C127.525 106.478 118.085 113.026 80.2254 119.345C44.0957 125.373 8.15662 129.601 6.56528 128.01C4.13449 125.579 31.8233 63.3646 38.6264 55.9667C44.1987 49.9078 57.0505 45.968 57.0505 50.3172C57.0505 51.1077 51.2568 65.059 44.1755 81.3226C29.0707 116.015 28.6303 118.732 38.3818 117.087C42.2752 116.43 56.4711 114.112 69.9254 111.934C98.2992 107.345 118.786 98.351 127.803 86.5292C137.591 73.6981 162.543 27.1835 160.542 25.4943C159.563 24.6677 143.246 24.987 124.278 26.2024C105.313 27.4178 89.2867 27.9045 88.6662 27.2839C86.8405 25.4608 95.6006 13.4434 100.336 11.2778C108.308 7.63162 180.65 3.28247 180.65 6.4497ZM182.73 47.374C154.591 103.63 143.15 120.141 126.323 128.798C116.182 134.015 86.6216 139.62 43.2717 144.546L15.3306 147.724L10.59 141.438C6.19192 135.606 6.16359 135.034 10.2063 133.543C12.6011 132.658 22.095 131.1 31.3006 130.08C66.22 126.215 106.4 118.297 116.023 113.389C131.05 105.723 141.147 92.1272 164.863 47.634L186.41 7.20419L191.068 14.3034C195.724 21.4001 195.724 21.4052 182.73 47.374ZM154.9 29.4521C154.9 30.0932 153.556 33.5695 151.91 37.177C149.477 42.5227 147.121 43.7355 139.19 43.7355C126.753 43.7355 124.878 46.9954 131.756 56.6542L137.264 64.3869L131.71 73.3736C128.653 78.3176 125.38 82.3191 124.433 82.2676C122.203 82.1466 90.5253 36.5153 90.5253 33.4227C90.5253 32.1275 100.086 30.6778 111.769 30.2014C123.452 29.725 137.936 29.0967 143.956 28.8109C149.977 28.5225 154.9 28.8109 154.9 29.4521ZM237.3 31.906C237.3 32.4828 229.572 52.4724 220.13 76.3245C204.775 115.112 202.954 121.603 202.908 137.723C202.851 158.503 206.25 166.403 232.232 205.913C241.064 219.342 251.045 234.694 254.413 240.032L260.539 249.734H251.405C242.522 249.734 241.654 248.789 219.293 214.72C174.985 147.201 174.897 146.292 205.746 70.7729C212.111 55.1942 218.309 39.8396 219.519 36.6543C221.134 32.4081 223.804 30.8606 229.51 30.8606C233.795 30.8606 237.3 31.3318 237.3 31.906ZM269.139 63.9517C286.572 86.8665 291.336 94.9288 291.194 101.289C290.746 121.328 288.385 120.316 265.555 90.299C253.604 74.5864 242.648 62.1209 241.206 62.5999C239.766 63.0762 234.024 74.9598 228.447 89.0089C215.798 120.862 213.406 144.987 221.157 162.507C226.467 174.509 254.305 218.835 256.535 218.835C257.263 218.835 265.21 204.17 274.191 186.248C290.46 153.79 290.54 153.687 294.812 159.785C301.682 169.593 299.856 176.896 281.406 213.358L263.982 247.793L243.281 215.933C201.881 152.217 199.967 144.783 214.418 103.81C227.481 66.7636 243.122 30.4846 245.079 32.6785C246.083 33.8038 256.908 47.8761 269.139 63.9517ZM143.712 50.173C144.155 51.5892 143.354 54.4861 141.935 56.6104C139.7 59.9528 138.84 59.8008 135.539 55.4749C133.44 52.7248 131.725 49.4571 131.725 48.2134C131.725 45.144 142.702 46.9388 143.712 50.173ZM81.415 76.8756C90.806 90.1445 97.949 101.544 97.2872 102.206C96.6255 102.87 91.787 104.379 86.5341 105.564C77.8795 107.515 76.3963 107.013 70.6516 100.19C67.1676 96.049 63.2433 92.6603 61.9301 92.6603C60.6168 92.6603 57.5912 96.7519 55.2068 101.753C51.3366 109.869 41.0984 116.19 37.5578 112.65C36.8832 111.975 40.5062 101.698 45.6098 89.8097C50.7135 77.9236 56.5484 64.253 58.5774 59.4326C60.6065 54.6148 62.7335 51.1386 63.3051 51.7077C63.8742 52.2793 72.024 63.6041 81.415 76.8756ZM263.467 93.4379L283.196 119.698L273.766 121.343C268.58 122.249 254.606 123.833 242.712 124.866L221.085 126.738L222.769 118.315C225.05 106.915 228.836 102.96 237.462 102.96C247.533 102.96 249.193 98.6548 242.578 89.7067C238.414 84.0752 237.382 80.1175 238.615 74.5014C239.535 70.3274 241.062 66.9722 242.009 67.0443C242.959 67.119 252.616 78.9974 263.467 93.4379ZM181.054 100.385C182.416 100.385 182.813 99.2265 181.937 97.8102C181.062 96.394 182.81 95.2353 185.82 95.2353C191.653 95.2353 191.539 97.3107 184.783 114.223L181.827 121.621L172.333 108.061C164.489 96.8549 163.318 93.6053 165.591 89.3566C168.207 84.4667 168.591 84.6083 173.46 92.2998C176.277 96.7468 179.695 100.385 181.054 100.385ZM241.965 95.9073C242.604 99.2239 241.108 100.385 236.2 100.385C228.972 100.385 228.82 100.195 231.187 94.0327C233.239 88.6871 240.83 90.008 241.965 95.9073ZM68.3418 102.633C72.4643 107.188 72.4232 107.531 67.6028 108.79C61.5284 110.379 59.6255 108.885 59.6255 102.53C59.6255 96.4867 62.8133 96.5253 68.3418 102.633ZM171.395 113.265C176.486 120.352 180.65 127.304 180.65 128.715C180.65 130.129 176.128 131.285 170.602 131.285C162.097 131.285 159.754 130.018 155.325 123.022C150.381 115.215 150.327 114.367 154.339 107.572C156.674 103.619 159.386 100.385 160.364 100.385C161.343 100.385 166.307 106.182 171.395 113.265ZM149.75 120.635C149.75 126.552 163.753 136.435 172.137 136.435C180.905 136.435 180.943 136.484 180.153 147.356C179.53 155.964 178.271 158.446 174.212 159.077C164.912 160.519 157.096 165.746 153.319 173.051L149.603 180.238L139.581 175.127C129.863 170.17 129.65 169.771 132.549 162.092C135.129 155.253 134.748 152.799 129.74 144.098L123.941 134.022L131.238 130.25C135.253 128.172 140.042 124.66 141.883 122.443C145.524 118.057 149.75 117.084 149.75 120.635ZM126.356 145.092C130.87 152.4 131.267 155.008 128.887 161.83C125.967 170.206 124.608 171.138 119.968 167.94C117.03 165.913 100.825 142.813 100.825 140.648C100.825 139.53 106.181 138.335 117.995 136.821C119.651 136.608 123.413 140.331 126.356 145.092ZM105.156 155.104L114.195 167.335H100.856C91.2746 167.335 87.8525 166.428 88.7022 164.116C89.3511 162.347 91.1845 161.186 92.7784 161.541C97.0091 162.481 96.2418 159.19 90.5253 151.885C84.0312 143.583 84.0904 141.029 90.7493 142.049C93.7029 142.502 100.187 148.378 105.156 155.104ZM275.487 174.416C269.765 186.81 263.317 200.364 261.159 204.543L257.235 212.14L252.466 206.251C248.13 200.895 248.042 199.695 251.511 192.989C257.997 180.447 256.661 177.635 244.213 177.635C233.98 177.635 232.752 176.898 228.653 168.303C226.206 163.171 224.543 158.649 224.958 158.255C225.769 157.48 267.569 152.827 278.976 152.24L285.892 151.885L275.487 174.416ZM188.236 172.214L193.352 182.244L184.842 183.841C179.434 184.855 175.078 187.773 172.904 191.836C171.019 195.356 168.735 198.235 167.824 198.235C164.96 198.235 154.9 183.186 154.9 178.904C154.9 172.433 167.726 162.185 175.824 162.185C181.711 162.185 184.108 164.121 188.236 172.214ZM140.923 179.391C152.366 185.509 160.32 194.483 193.87 239.12C214.374 266.4 215.907 269.266 213.574 275.956C212.183 279.944 210.167 283.209 209.093 283.209C208.019 283.209 195.451 267.757 181.16 248.872C135.235 188.177 131.437 186.31 59.0976 188.908C32.4799 189.863 10.7007 189.714 10.7007 188.576C10.7007 187.438 12.4569 184 14.6018 180.936C19.587 173.819 26.4854 173.077 84.0878 173.469C126.423 173.757 131.347 174.269 140.923 179.391ZM250.174 184.152C250.174 189.526 242.46 192.117 239.71 187.667C238.203 185.231 238.909 183.511 241.901 182.324C248.769 179.597 250.174 179.909 250.174 184.152ZM198.381 189.866C200.485 193.6 199.514 194.843 192.716 197.127C188.205 198.642 183.369 202.406 181.971 205.496C178.791 212.521 176.329 212.626 174.171 205.834C172.003 198.994 178.778 188.645 186.379 187.185C189.601 186.567 193.048 185.903 194.04 185.71C195.031 185.517 196.986 187.386 198.381 189.866ZM127.863 197.903C140.454 203.655 151.88 215.915 182.707 256.756C209.902 292.788 211.261 288.892 169.912 293.38C129.742 297.742 122.19 297.173 114.838 289.242C111.352 285.48 108.864 282.038 109.31 281.59C109.758 281.144 126.282 278.909 146.029 276.62C165.779 274.333 182.179 272.224 182.476 271.933C182.772 271.642 174.406 260.243 163.887 246.598C132.217 205.527 122.769 200.81 72.1759 200.81C48.6483 200.81 39.0256 201.68 39.0256 203.812C39.0256 205.463 47.1574 219.447 57.0942 234.887C67.0337 250.327 74.5913 263.884 73.8935 265.014C71.7949 268.408 58.7397 264.893 52.5545 259.267C46.9565 254.176 10.7007 198.353 10.7007 194.828C10.7007 193.87 34.7459 193.111 64.1317 193.141C110.324 193.19 118.958 193.834 127.863 197.903ZM77.6117 206.603C77.5886 208.375 76.4788 211.55 75.1423 213.664C71.9648 218.69 65.9651 213.283 68.2156 207.42C70.0516 202.633 77.6684 201.971 77.6117 206.603ZM105.434 207.286C105.844 207.613 100.305 220.431 93.126 235.77L80.0709 263.657L67.8268 244.466C61.0932 233.909 52.9228 220.928 49.6706 215.616L43.7558 205.96H51.5143C57.1973 205.96 60.7482 208.027 64.7754 213.685C71.8052 223.557 74.0763 223.398 80.4571 212.583C85.2466 204.466 86.4311 203.874 95.1757 205.223C100.408 206.029 105.022 206.956 105.434 207.286ZM147.713 242.779C142.859 256.203 143.549 257.459 155.788 257.459C163.717 257.459 168.339 258.963 171.653 262.625C174.223 265.468 175.85 268.238 175.271 268.787C173.345 270.602 108.442 277.091 109.148 275.397C109.526 274.485 115.626 261.402 122.7 246.323L135.559 218.907L143.194 226.539C150.329 233.674 150.623 234.733 147.713 242.779ZM159.597 248.025C160.055 250.389 158.556 253.043 156.267 253.924C150.669 256.071 148.921 253.831 151.022 247.211C152.989 241.008 158.335 241.515 159.597 248.025Z" fill="white"/>
</svg>
