<svg width="36" height="37" viewBox="0 0 36 37" fill="none" xmlns="http://www.w3.org/2000/svg">
<path d="M30.9375 4.6875H5.0625C4.44023 4.6875 3.9375 5.19023 3.9375 5.8125V31.6875C3.9375 32.3098 4.44023 32.8125 5.0625 32.8125H30.9375C31.5598 32.8125 32.0625 32.3098 32.0625 31.6875V5.8125C32.0625 5.19023 31.5598 4.6875 30.9375 4.6875ZM29.8125 21H18.5625V16.5H29.8125V21ZM20.3906 18.75C20.3906 19.123 20.5388 19.4806 20.8025 19.7444C21.0662 20.0081 21.4239 20.1562 21.7969 20.1562C22.1698 20.1562 22.5275 20.0081 22.7912 19.7444C23.055 19.4806 23.2031 19.123 23.2031 18.75C23.2031 18.377 23.055 18.0194 22.7912 17.7556C22.5275 17.4919 22.1698 17.3438 21.7969 17.3438C21.4239 17.3438 21.0662 17.4919 20.8025 17.7556C20.5388 18.0194 20.3906 18.377 20.3906 18.75Z" fill="#FFD37E"/>
</svg>
